<svg width="29" height="29" viewBox="0 0 29 29" fill="none" xmlns="http://www.w3.org/2000/svg">
<path d="M20.5858 0H8.4287C3.14807 0 0 3.1465 0 8.4245V20.561C0 25.8535 3.14807 29 8.4287 29H20.5713C25.8519 29 29 25.8535 29 20.5755V8.4245C29.0145 3.1465 25.8664 0 20.5858 0ZM21.7608 22.1125H7.25361C6.65882 22.1125 6.16557 21.6195 6.16557 21.025C6.16557 20.4305 6.65882 19.9375 7.25361 19.9375H21.7608C22.3556 19.9375 22.8489 20.4305 22.8489 21.025C22.8489 21.6195 22.3556 22.1125 21.7608 22.1125ZM21.7608 15.5875H7.25361C6.65882 15.5875 6.16557 15.0945 6.16557 14.5C6.16557 13.9055 6.65882 13.4125 7.25361 13.4125H21.7608C22.3556 13.4125 22.8489 13.9055 22.8489 14.5C22.8489 15.0945 22.3556 15.5875 21.7608 15.5875ZM21.7608 9.0625H7.25361C6.65882 9.0625 6.16557 8.5695 6.16557 7.975C6.16557 7.3805 6.65882 6.8875 7.25361 6.8875H21.7608C22.3556 6.8875 22.8489 7.3805 22.8489 7.975C22.8489 8.5695 22.3556 9.0625 21.7608 9.0625Z" fill="black"/>
</svg>
